<svg class="social-list__svg  social-list__svg_phone" xmlns="http://www.w3.org/2000/svg" viewBox="3 3 90 90"><path d="M48 2.94C23.132 2.94 2.94 23.131 2.94 48c0 24.868 20.192 45.06 45.06 45.06 24.868 0 45.06-20.192 45.06-45.06C93.06 23.132 72.869 2.94 48 2.94zM32.765 20.932a8.435 8.435 0 015.678 2.552l5.8 5.93a3.385 3.385 0 01.44 4.164l-4.768 7.532c-.237.375-.36 1.613-.218 1.964 2.583 6.343 6.953 10.64 13.055 13.322.347.152 1.581.06 1.958-.167l7.632-4.606a3.387 3.387 0 014.155.53l5.803 5.928c3.143 3.212 3.275 8.296.17 11.335l-3.927 3.842c-1.57 1.536-3.589 1.985-5.49 1.757-15.78-2.074-30.195-22.913-39.914-37.08-.879-1.79-1.645-3.664-1.83-5.571-.186-1.908.312-3.918 1.882-5.454l3.924-3.839c1.552-1.52 3.6-2.221 5.65-2.14z" fill="currentColor"/></svg>